<?xml version="1.0" standalone="no"?>
<!DOCTYPE svg PUBLIC "-//W3C//DTD SVG 20010904//EN"
 "http://www.w3.org/TR/2001/REC-SVG-20010904/DTD/svg10.dtd">
<svg version="1.0" xmlns="http://www.w3.org/2000/svg"
 width="308.000000pt" height="181.000000pt" viewBox="0 0 308.000000 181.000000"
 preserveAspectRatio="xMidYMid meet">

<g transform="translate(0.000000,181.000000) scale(0.100000,-0.100000)"
fill="#000000" stroke="none">
<path d="M475 1795 c-5 -2 -31 -6 -57 -10 l-48 -6 0 -105 0 -104 38 19 c20 10
56 24 80 31 l42 13 0 84 c0 80 -1 83 -22 82 -13 0 -27 -2 -33 -4z"/>
<path d="M238 1686 c-105 -106 -187 -254 -217 -393 -16 -78 -23 -232 -13 -288
8 -44 10 -46 11 -16 2 64 43 196 93 301 45 92 61 115 139 192 l89 88 0 64 c0
72 -9 126 -20 126 -5 0 -41 -33 -82 -74z"/>
<path d="M414 1555 c-198 -99 -329 -308 -365 -578 -14 -109 -4 -208 32 -331
l22 -71 16 60 c23 80 42 115 88 156 85 77 173 109 303 109 l75 1 -60 30 c-79
40 -110 71 -148 149 -30 60 -32 72 -32 170 0 99 2 110 32 171 18 36 56 89 83
118 28 28 45 51 37 51 -8 0 -45 -16 -83 -35z"/>
<path d="M483 1518 c-91 -100 -123 -227 -89 -356 30 -112 92 -180 202 -222 94
-35 173 -19 240 48 49 49 68 98 72 189 7 144 -41 243 -142 296 -43 22 -153 30
-208 14 -26 -7 -27 -5 -30 34 l-3 42 -42 -45z m216 -164 c33 -24 61 -91 61
-149 0 -61 -33 -134 -70 -153 -31 -16 -101 -10 -135 12 -24 16 -25 20 -25 126
0 118 -4 125 -48 94 -12 -8 -22 -11 -22 -5 0 13 59 61 95 77 42 19 116 17 144
-2z"/>
<path d="M1650 1516 l-75 -11 0 -285 0 -285 80 0 80 0 3 193 c2 131 -1 192 -8
192 -6 0 -25 -7 -43 -16 l-32 -16 35 37 c19 21 49 44 67 51 43 19 123 18 151
-2 42 -29 47 -51 52 -249 l5 -190 80 0 80 0 0 187 c0 103 -3 190 -7 193 -3 4
-21 -1 -40 -10 l-33 -17 35 37 c19 21 49 44 67 51 43 19 123 18 151 -2 42 -29
47 -51 52 -249 l5 -190 80 0 80 0 0 180 c-1 144 -4 190 -18 230 -38 112 -128
175 -250 175 -75 0 -116 -13 -163 -53 -29 -25 -33 -25 -45 -10 -30 35 -111 63
-184 62 -38 0 -79 -4 -90 -8 -12 -5 -24 -3 -30 4 -7 8 -29 9 -85 1z"/>
<path d="M1104 1496 c-99 -46 -148 -141 -147 -282 1 -99 33 -175 96 -229 50
-43 101 -59 187 -59 152 1 253 101 267 265 9 108 -17 189 -81 255 -59 60 -96
74 -201 74 -53 0 -83 -6 -121 -24z m166 -114 c72 -35 102 -158 61 -248 -23
-51 -55 -74 -102 -74 -72 0 -113 62 -112 171 1 31 8 70 17 87 21 41 21 42 -15
42 -67 0 10 37 81 39 19 1 51 -7 70 -17z"/>
<path d="M2737 1506 c-20 -7 -45 -20 -55 -27 -33 -25 -72 -63 -72 -70 0 -4 23
-21 51 -38 l50 -32 30 26 c42 34 106 35 143 0 47 -44 36 -61 -51 -79 -132 -28
-154 -36 -197 -76 l-41 -39 0 -76 0 -76 41 -39 c53 -49 130 -68 205 -50 27 7
52 16 55 21 9 14 24 10 24 -6 0 -13 13 -15 78 -13 l77 3 3 175 c2 103 -1 196
-8 226 -13 62 -64 125 -124 156 -52 27 -156 34 -209 14z m215 -329 c-20 -21
-32 -43 -32 -60 0 -36 -50 -67 -108 -67 -59 0 -82 14 -82 50 0 37 23 50 140
79 46 12 88 25 94 31 5 5 12 7 15 5 2 -3 -10 -20 -27 -38z"/>
<path d="M1061 801 c-30 -11 -69 -34 -88 -53 l-35 -35 53 -33 c33 -20 55 -28
57 -21 5 16 56 41 82 41 53 0 112 -60 79 -81 -7 -4 -42 -13 -78 -19 -138 -23
-205 -79 -205 -170 0 -55 14 -81 61 -117 29 -22 48 -28 104 -31 47 -3 77 0 98
11 25 12 31 13 35 1 4 -10 25 -14 76 -14 l70 0 0 183 c0 155 -3 188 -19 223
-26 57 -92 110 -153 123 -64 14 -73 14 -137 -8z m191 -294 c-20 -20 -32 -43
-32 -60 0 -32 -41 -57 -96 -57 -38 0 -74 22 -74 46 0 24 50 52 123 68 39 9 79
21 87 26 27 17 25 11 -8 -23z"/>
<path d="M1535 815 c-5 -2 -27 -6 -47 -10 l-38 -6 0 -260 0 -260 73 3 72 3 3
178 c1 97 0 177 -3 177 -3 0 -19 -7 -36 -15 -28 -15 -29 -15 -18 3 33 53 133
86 191 63 54 -21 63 -49 68 -236 l5 -170 70 0 70 0 -1 175 c0 162 -2 179 -23
223 -52 106 -186 165 -288 126 -19 -7 -29 -7 -31 0 -3 10 -44 14 -67 6z"/>
<path d="M2168 806 c-99 -38 -149 -116 -156 -242 -7 -136 40 -227 140 -269 42
-17 134 -20 172 -5 26 9 26 9 26 -36 0 -24 -7 -60 -14 -79 -28 -65 -120 -83
-178 -35 l-23 19 33 -9 c17 -5 32 -6 32 -3 0 15 -43 73 -55 73 -10 0 -50 -12
-113 -35 -15 -5 17 -75 52 -113 54 -61 177 -85 267 -54 47 16 97 66 123 122
20 42 21 65 24 364 l3 318 -63 -8 c-66 -8 -76 -8 -173 0 -40 4 -73 1 -97 -8z
m188 -131 c24 -14 48 -34 54 -45 10 -18 9 -18 -17 -4 -16 7 -31 14 -35 14 -5
0 -8 -47 -8 -104 0 -118 -4 -126 -75 -134 -55 -6 -90 15 -112 66 -19 46 -13
150 11 183 38 55 113 64 182 24z"/>
<path d="M354 778 c8 -18 57 -138 111 -267 l97 -233 -25 -67 c-14 -36 -37 -96
-51 -134 l-26 -67 78 0 78 0 160 400 161 400 -81 0 -81 0 -52 -128 c-29 -71
-53 -144 -54 -163 -3 -93 -12 -82 -90 104 l-76 182 -81 3 -81 3 13 -33z"/>
<path d="M2580 654 c0 -171 8 -220 48 -279 52 -76 189 -119 276 -85 20 7 26 6
26 -4 0 -10 14 -11 73 -2 l72 11 3 258 2 257 -75 0 -75 0 0 -175 c0 -117 4
-175 11 -175 6 0 20 5 32 11 20 11 20 10 -3 -16 -36 -39 -72 -55 -125 -55
-102 0 -115 27 -115 245 l0 165 -75 0 -75 0 0 -156z"/>
</g>
</svg>
